<svg xmlns="http://www.w3.org/2000/svg" style="display: none;"><symbol id="bathroom" viewBox="0 0 512 512"><title>bathroom</title><path d="M406,212H241V90h15c8.284,0,15-6.716,15-15V45c0-24.813-20.187-45-45-45H76C51.187,0,31,20.187,31,45v30 c0,8.284,6.716,15,15,15h15v167c0,19.555,12.541,36.228,30,42.42V347c0,34.462,23.364,63.57,55.083,72.316l-24.313,72.941 c-1.524,4.574-0.758,9.603,2.062,13.514C126.65,509.682,131.179,512,136,512h180c4.821,0,9.35-2.318,12.169-6.229 c2.819-3.911,3.586-8.94,2.062-13.514L306.812,422H316c69.369,0,126.676-52.595,134.162-120H466c8.284,0,15-6.716,15-15 C481,245.645,447.355,212,406,212z M61,60V45c0-8.271,6.729-15,15-15h150c8.271,0,15,6.729,15,15v15C227.97,60,69.076,60,61,60z M106,272c-8.271,0-15-6.729-15-15V90h120v182H106z M316,392h-30c-4.821,0-9.35,2.318-12.169,6.229 c-2.819,3.912-3.586,8.94-2.061,13.514L295.188,482H156.812l23.419-70.257c1.524-4.574,0.758-9.603-2.062-13.514 C175.35,394.318,170.821,392,166,392c-24.813,0-45-20.187-45-45v-45.1c12.987,0,285.733,0,298.924,0 C412.623,352.717,368.805,392,316,392z M241,272v-30h165c19.557,0,36.239,12.539,42.43,30H241z"/></symbol><symbol id="flat-plan" viewBox="0 0 612 612"><title>flat-plan</title><path d="M597.656,4.781H14.344C6.417,4.781,0,11.207,0,19.125v459c0,7.918,6.417,14.344,14.344,14.344H344.25 c7.928,0,14.344-6.426,14.344-14.344s-6.416-14.344-14.344-14.344H229.5v-38.25c0-7.918-6.417-14.344-14.344-14.344 s-14.344,6.426-14.344,14.344v38.25H28.688v-229.5h172.125v76.5c0,7.918,6.417,14.344,14.344,14.344s14.344-6.426,14.344-14.344 v-19.125h181.688c7.928,0,14.344-6.426,14.344-14.344s-6.416-14.344-14.344-14.344H229.5V90.844 c0-7.918-6.417-14.344-14.344-14.344s-14.344,6.426-14.344,14.344v114.75H28.688V33.469h554.625v229.5h-76.5v-38.25 c0-7.918-6.416-14.344-14.344-14.344s-14.344,6.426-14.344,14.344v52.594c0,7.918,6.416,14.344,14.344,14.344h90.844v286.875H459 v-95.625c0-7.918-6.416-14.344-14.344-14.344s-14.344,6.426-14.344,14.344v109.969c0,7.918,6.416,14.344,14.344,14.344h153 c7.928,0,14.344-6.426,14.344-14.344V19.125C612,11.207,605.584,4.781,597.656,4.781z"/></symbol><symbol id="size" viewBox="0 0 512 512"><title>size</title><path d="m0 0v512h512v-512zm30 243.078125h238.921875v238.921875h-238.921875zm268.921875 238.921875v-268.921875h-268.921875v-183.078125h432.460938l-103.085938 101.742188v-64.125h-30v115.007812h115.007812v-30h-63.457031l101.074219-99.757812v429.132812zm0 0"/></symbol><symbol id="bed" viewBox="0 -78 512 512"><title>bed</title><path d="m486.667969 201v-22.824219c0-32.445312-26.398438-58.84375-58.847657-58.84375h-229.152343v-20.910156c0-24.125-19.628907-43.753906-43.753907-43.753906h-46.160156c-4.804687 0-9.425781.789062-13.753906 2.226562v-56.894531h-95v356.238281h30v-60.585937h452v60.585937h30v-155.238281zm-58.847657-51.667969c15.90625 0 28.847657 12.9375 28.847657 28.84375v22.824219h-361.667969v-51.667969zm-319.066406-64.667969h46.160156c7.582032 0 13.753907 6.171876 13.753907 13.753907v20.914062h-73.667969v-20.910156c0-7.585937 6.171875-13.757813 13.753906-13.757813zm-78.753906-54.664062h35v171h-35zm0 201h452v34.652344h-452zm0 0"/></symbol></svg>